<!-- Generated by IcoMoon.io -->
<svg version="1.1" xmlns="http://www.w3.org/2000/svg" width="1024" height="1024" viewBox="0 0 1024 1024">
<title></title>
<g id="icomoon-ignore">
</g>
<path fill="#0F56B3" d="M853.333 0c94.256 0 170.667 76.411 170.667 170.667v682.667c0 94.256-76.411 170.667-170.667 170.667h-682.667c-94.256 0-170.667-76.411-170.667-170.667v-682.667c0-94.256 76.411-170.667 170.667-170.667h682.667zM766.275 282.719l-368.052 368.052-140.497-140.497c-16.663-16.663-43.677-16.663-60.34 0s-16.663 43.677 0 60.34l170.667 170.667c16.663 16.663 43.677 16.663 60.34 0l398.223-398.223c16.663-16.663 16.663-43.677 0-60.34s-43.677-16.663-60.34 0z"></path>
</svg>
