<!-- Generated by IcoMoon.io -->
<svg version="1.1" xmlns="http://www.w3.org/2000/svg" width="1024" height="1024" viewBox="0 0 1024 1024">
<title></title>
<g id="icomoon-ignore">
</g>
<path fill="#D4B011" d="M116.822 20.047c-26.726-26.724-70.053-26.724-96.778 0s-26.724 70.053 0 96.778l395.178 395.176-395.173 395.176c-26.724 26.722-26.724 70.054 0 96.777s70.053 26.722 96.778 0l395.173-395.176 395.176 395.176c26.722 26.722 70.054 26.722 96.777 0s26.722-70.054 0-96.777l-395.176-395.176 395.182-395.176c26.722-26.726 26.722-70.053 0-96.778s-70.054-26.724-96.777 0l-395.182 395.178-395.176-395.178z"></path>
</svg>
