<!-- Generated by IcoMoon.io -->
<svg version="1.1" xmlns="http://www.w3.org/2000/svg" width="1024" height="1024" viewBox="0 0 1024 1024">
<title></title>
<g id="icomoon-ignore">
</g>
<path fill="#818181" d="M775.823 699.341c132.408-170.047 120.445-416.065-35.874-572.388-169.273-169.273-443.721-169.273-612.993 0s-169.273 443.718 0 612.991c156.323 156.324 402.342 168.281 572.39 35.879 0.731 0.829 1.495 1.642 2.287 2.433l229.875 229.87c21.158 21.164 55.466 21.164 76.623 0 21.158-21.158 21.158-55.461 0-76.623l-229.87-229.87c-0.796-0.791-1.609-1.555-2.438-2.292zM663.321 203.579c126.958 126.955 126.958 332.787 0 459.743-126.952 126.952-332.787 126.952-459.741 0-126.955-126.958-126.955-332.789 0-459.743s332.789-126.955 459.741 0z"></path>
</svg>
